<?xml version="1.0" standalone="no"?>
<!DOCTYPE svg PUBLIC "-//W3C//DTD SVG 1.1//EN" "http://www.w3.org/Graphics/SVG/1.1/DTD/svg11.dtd" >
<svg xmlns="http://www.w3.org/2000/svg">
<metadata>
This is a custom SVG webfont generated by Font Squirrel.
Copyright   : Copyright c 2008 by Dino dos Santos DSType All rights reserved
Designer    : Dino dos Santos
Foundry     : Dino dos Santos DSType
Foundry URL : httpwwwdstypecom
</metadata>
<defs>
<font id="PreloLight" horiz-adv-x="1085" >
<font-face units-per-em="2048" ascent="1536" descent="-512" />
<missing-glyph horiz-adv-x="368" />
<glyph unicode=" "  horiz-adv-x="368" />
<glyph unicode="&#x09;" horiz-adv-x="368" />
<glyph unicode="&#xa0;" horiz-adv-x="368" />
<glyph unicode="!" horiz-adv-x="378" d="M137 0v236h103v-236h-103zM137 1393h103l-4 -959h-93z" />
<glyph unicode="&#x22;" horiz-adv-x="788" d="M137 1393h103l-11 -242h-82zM547 1393h102l-10 -242h-82z" />
<glyph unicode="#" horiz-adv-x="1239" d="M137 260l8 72h205l37 358h-205l8 72h205l29 262h76l-29 -262h348l29 262h78l-29 -262h205l-8 -72h-205l-37 -358h205l-8 -72h-205l-27 -260h-78l29 260h-348l-29 -260h-76l27 260h-205zM426 332h348l39 358h-348z" />
<glyph unicode="$" horiz-adv-x="1228" d="M137 45l21 92q233 -61 456 -61q186 0 274.5 85t88.5 201q0 59 -28.5 107.5t-65.5 78.5t-97.5 54.5t-94.5 34.5t-87 22q-188 47 -317 146.5t-129 259.5q0 172 117.5 258t316.5 90v184h51v-184q213 -8 422 -67l-25 -93q-229 61 -426 62q-344 0 -344 -252q0 -213 400 -311 q420 -92 420 -383q0 -180 -123 -281.5t-324 -107.5v-185h-51v185q-248 6 -455 65z" />
<glyph unicode="%" horiz-adv-x="1556" d="M106 1126q0 127 69 199t196 72t195.5 -72t68.5 -199t-68.5 -198.5t-195.5 -71.5t-196 72.5t-69 197.5zM176 1126q0 -213 195 -213q197 0 196.5 213t-196.5 213q-195 0 -195 -213zM362 0l758 1393h72l-758 -1393h-72zM920 266q0 125 68.5 198t195.5 73t195.5 -72 t68.5 -199t-68.5 -199.5t-195.5 -72.5t-195.5 72.5t-68.5 199.5zM989 266q0 -213 195 -213q197 0 196 213q0 211 -196 211q-195 0 -195 -211z" />
<glyph unicode="&#x26;" horiz-adv-x="1443" d="M131 346q0 125 79 220.5t279 185.5q-2 2 -35.5 38.5t-44 50t-38 50.5t-37.5 62.5t-21.5 63.5t-11.5 75q0 158 107.5 239.5t257.5 81.5q154 0 242.5 -78t88.5 -219q0 -104 -78.5 -195.5t-281.5 -185.5l440 -436q133 160 172 418h97q-39 -297 -203 -488l182 -188l-68 -74 l-186 195q-193 -182 -487 -182q-221 0 -337 99t-116 267zM238 360q0 -47 15 -92t52 -92t114 -76.5t185 -29.5q242 0 404 159l-463 467q-147 -66 -227 -139.5t-80 -196.5zM401 1098q0 -80 42 -145.5t132 -157.5q150 66 237 143.5t87 179.5q0 70 -26.5 118t-69.5 68.5 t-76 27.5t-63 7q-78 0 -134.5 -26.5t-82 -68.5t-36 -77.5t-10.5 -68.5z" />
<glyph unicode="'" horiz-adv-x="378" d="M137 1393h103l-11 -242h-82z" />
<glyph unicode="(" horiz-adv-x="675" d="M162 696q0 250 91 508t253 475h72q-313 -506 -314 -983q0 -471 314 -983h-72q-162 217 -253 475t-91 508z" />
<glyph unicode=")" horiz-adv-x="675" d="M96 -287q315 510 316 983q0 479 -316 983h72q162 -219 254 -476t92 -507q0 -248 -92 -507t-254 -476h-72z" />
<glyph unicode="*" horiz-adv-x="860" d="M92 1130l19 64l295 -72l-9 271h66l-6 -271l291 72l20 -64l-299 -51l195 -243l-52 -39l-184 256l-180 -256l-51 39l192 243z" />
<glyph unicode="+" horiz-adv-x="1024" d="M137 500v86h332v329h86v-329h330v-86h-330v-332h-86v332h-332z" />
<glyph unicode="," horiz-adv-x="378" d="M137 0v236h103v-236l-56 -266h-41l31 266h-37z" />
<glyph unicode="-" horiz-adv-x="1024" d="M137 500v86h748v-86h-748z" />
<glyph unicode="." horiz-adv-x="378" d="M137 0v236h103v-236h-103z" />
<glyph unicode="/" horiz-adv-x="1105" d="M127 0l758 1393h92l-758 -1393h-92z" />
<glyph unicode="0" horiz-adv-x="1208" d="M137 707q0 707 467 706q133 0 227.5 -55t144.5 -156.5t71.5 -221.5t21.5 -273q0 -727 -465 -727q-467 0 -467 727zM246 707q0 -641 358.5 -641t358.5 641q0 618 -358.5 618t-358.5 -618z" />
<glyph unicode="1" horiz-adv-x="739" d="M66 1137q305 156 452 266h72v-1403h-103v1274l-391 -225z" />
<glyph unicode="2" horiz-adv-x="1126" d="M137 0v104q723 489 723 877q0 86 -25.5 150.5t-61.5 99.5t-84 55.5t-85 26.5t-72 6q-178 0 -362 -92l-33 84q221 102 416 102q205 0 309.5 -116.5t104.5 -290.5q0 -217 -166 -439.5t-516 -470.5v-4h702v-92h-850z" />
<glyph unicode="3" horiz-adv-x="1167" d="M137 74l35 80q168 -88 389 -88q94 0 165 22.5t107.5 54t58 75.5t27 77t5.5 67q0 129 -97.5 210t-294.5 81h-163v86h159q168 0 263.5 90.5t95.5 212.5q0 45 -12.5 88.5t-44 90.5t-101.5 75.5t-168 28.5q-182 0 -352 -88l-33 82q176 94 399 94q199 0 305.5 -96t106.5 -266 q0 -129 -81 -218.5t-204 -123.5v-4q150 -23 238 -116t88 -231q0 -182 -115.5 -280t-347.5 -98q-260 0 -428 94z" />
<glyph unicode="4" horiz-adv-x="1208" d="M117 393v88q440 479 633 912h131v-912h209v-88h-209v-393h-103v393h-661zM225 481h553v776h-4q-176 -356 -549 -776z" />
<glyph unicode="5" horiz-adv-x="1167" d="M137 82l33 80q186 -96 377 -96q170 0 272.5 98t102.5 270q0 141 -78 243.5t-250 102.5q-190 0 -313 -172l-80 8l39 777h706v-93h-616l-37 -593l4 -2q127 166 328 165q190 0 296.5 -114.5t106.5 -315.5q0 -219 -128 -339.5t-347 -120.5q-207 0 -416 102z" />
<glyph unicode="6" horiz-adv-x="1167" d="M137 614q0 424 152.5 611.5t404.5 187.5q133 0 291 -47l-14 -82q-141 41 -269 41q-109 0 -193.5 -46t-131.5 -111.5t-80 -153.5t-44 -158t-13 -139l4 -2q147 217 362 217q201 0 311.5 -126t110.5 -355q0 -217 -121 -344t-307 -127q-463 -1 -463 634zM248 625 q-16 -559 344 -559q137 0 233.5 102t96.5 283q0 72 -14.5 134t-50.5 123.5t-106.5 97.5t-169 36t-185.5 -60.5t-148 -156.5z" />
<glyph unicode="7" horiz-adv-x="1024" d="M117 1300v93h788v-78q-457 -739 -553 -1315h-112q43 285 207.5 655.5t345.5 640.5v4h-676z" />
<glyph unicode="8" horiz-adv-x="1208" d="M137 342q0 141 99.5 229t267.5 148v4q-154 55 -240 137t-86 213q0 156 118 248t310 92q188 0 305 -91t117 -245q0 -127 -81 -201.5t-245 -140.5v-4q176 -70 271.5 -156t95.5 -225q0 -172 -123 -271t-344 -99t-343 97t-122 265zM244 350q0 -125 86 -208t276 -83 q188 0 273.5 80t85.5 203q0 57 -23.5 105.5t-55.5 79t-89.5 62.5t-97.5 49t-109 42q-156 -53 -251 -129t-95 -201zM281 1073q0 -207 333 -299q150 51 231 117.5t81 175.5q0 76 -33 132t-85 83t-103.5 39t-102.5 12t-101 -11t-102.5 -38t-85 -81t-32.5 -130z" />
<glyph unicode="9" horiz-adv-x="1167" d="M137 942q0 215 122 343t308 128q461 0 461 -635q0 -219 -43 -378.5t-122 -249t-175 -130t-215 -40.5q-131 0 -293 47l17 79q152 -41 268 -40q109 0 193.5 45t132 111.5t79 154.5t43 158.5t13.5 138.5l-4 2q-68 -98 -161 -156.5t-200 -58.5q-201 0 -312.5 126t-111.5 355z M246 942q0 -72 14 -134.5t50 -123.5t106.5 -97t169.5 -36q96 0 184 60.5t150 156.5q4 119 -9.5 210t-48.5 174t-107.5 128t-179.5 45q-137 0 -233 -101.5t-96 -281.5z" />
<glyph unicode=":" horiz-adv-x="378" d="M137 0v236h103v-236h-103zM137 707v235h103v-235h-103z" />
<glyph unicode=";" horiz-adv-x="378" d="M137 0v236h103v-236l-56 -266h-41l31 266h-37zM137 707v235h103v-235h-103z" />
<glyph unicode="&#x3c;" horiz-adv-x="778" d="M137 479v66l502 336v-97l-393 -272l393 -274v-95z" />
<glyph unicode="=" horiz-adv-x="1024" d="M137 295v86h748v-86h-748zM137 705v86h748v-86h-748z" />
<glyph unicode="&#x3e;" horiz-adv-x="778" d="M137 137v96l395 279l-395 279v94l502 -340v-66z" />
<glyph unicode="?" horiz-adv-x="983" d="M117 1335q201 78 368 78q207 0 293 -100.5t86 -243.5q0 -104 -42 -181t-100 -121t-117.5 -81t-101.5 -85t-42 -109v-62h-92v62q0 76 40 133t97 97t115.5 81t98.5 106.5t40 151.5q0 254 -299 254q-135 0 -314 -70zM362 0v236h103v-236h-103z" />
<glyph unicode="@" horiz-adv-x="1699" d="M61 518q0 356 234.5 586.5t593.5 230.5q315 0 532 -187t217 -480q0 -229 -133 -381t-377 -152h-77v80h-4q-109 -94 -265 -94q-121 0 -191.5 58.5t-70.5 164.5q0 242 336 242h195v94q0 98 -46.5 147.5t-158.5 49.5q-119 0 -260 -43l-19 59q158 51 297 51q135 0 202 -58.5 t67 -201.5v-483q100 0 180 31.5t126 80.5t76.5 114t42 123t11.5 116q0 270 -197.5 438t-482.5 168q-332 0 -545 -209t-213 -545q0 -307 195.5 -504.5t496.5 -197.5l-6 -62q-330 0 -543 217t-213 547zM604 350q0 -76 52.5 -120t152.5 -44q141 0 242 86v258h-193 q-141 0 -197.5 -46t-56.5 -134z" />
<glyph unicode="A" horiz-adv-x="1331" d="M96 0l510 1403h133l494 -1403h-119l-137 391h-623l-143 -391h-115zM379 483h575l-282 787h-4z" />
<glyph unicode="B" horiz-adv-x="1249" d="M158 0v1393h538q190 0 292 -96.5t102 -254.5q0 -127 -62.5 -213t-181.5 -116v-4q137 -27 210.5 -118t73.5 -224q0 -172 -101 -269.5t-292 -97.5h-579zM266 96h455q143 0 220 72t77 211q0 133 -83 206.5t-245 73.5h-424v-563zM266 758h420q291 0 291 268q0 125 -76 196.5 t-215 71.5h-420v-536z" />
<glyph unicode="C" horiz-adv-x="1269" d="M137 707q0 123 14.5 221t53.5 191t101.5 155.5t163.5 100.5t237 38q231 0 460 -67l-24 -93q-248 61 -428 62q-139 0 -234.5 -48t-143.5 -138.5t-67.5 -190.5t-19.5 -231q0 -139 19.5 -244t67.5 -197t143 -141t235 -49q180 0 428 61l24 -92q-231 -66 -460 -65 q-135 0 -236.5 37.5t-164 102t-101.5 160t-53.5 198t-14.5 229.5z" />
<glyph unicode="D" horiz-adv-x="1331" d="M158 0v1393h475q559 0 559 -686q0 -707 -559 -707h-475zM266 96h367q446 0 446 611q0 129 -19.5 227t-67.5 183t-138 131t-221 46h-367v-1198z" />
<glyph unicode="E" horiz-adv-x="1146" d="M158 0v1393h839v-99h-731v-522h639v-96h-639v-580h742v-96h-850z" />
<glyph unicode="F" horiz-adv-x="1095" d="M158 0v1393h819v-99h-711v-563h619v-96h-619v-635h-108z" />
<glyph unicode="G" horiz-adv-x="1310" d="M137 707q0 123 14.5 221t53.5 191t101.5 155.5t163.5 100.5t237 38q219 0 444 -67l-25 -93q-246 61 -411 62q-139 0 -234.5 -48t-143.5 -138.5t-67.5 -190.5t-19.5 -231q0 -139 19.5 -244t67.5 -197t143 -141t235 -49q178 0 329 100v412h-317v98h424v-582 q-223 -125 -444 -124q-135 0 -236.5 37.5t-164 102t-101.5 160t-53.5 198t-14.5 229.5z" />
<glyph unicode="H" horiz-adv-x="1310" d="M158 0v1393h108v-621h778v621h107v-1393h-107v676h-778v-676h-108z" />
<glyph unicode="I" horiz-adv-x="423" d="M158 0v1393h108v-1393h-108z" />
<glyph unicode="J" horiz-adv-x="649" d="M43 -8l10 92q66 -10 125 -10q113 0 159 61.5t46 198.5v1059h109v-1065q0 -193 -71 -270.5t-216 -77.5q-86 0 -162 12z" />
<glyph unicode="K" horiz-adv-x="1267" d="M158 0v1393h108v-811l752 811h129l-516 -570l530 -823h-135l-475 737l-285 -303v-434h-108z" />
<glyph unicode="L" horiz-adv-x="1105" d="M158 0v1393h108v-1297h721v-96h-829z" />
<glyph unicode="M" horiz-adv-x="1638" d="M158 0v1393h139l522 -1215h4l518 1215h138v-1393h-107v1182h-4l-510 -1182h-82l-508 1182h-4v-1182h-106z" />
<glyph unicode="N" horiz-adv-x="1331" d="M158 0v1393h108l797 -1192h4v1192h104v-1393h-106l-797 1182h-4v-1182h-106z" />
<glyph unicode="O" horiz-adv-x="1413" d="M137 707q0 123 14.5 221t53.5 191t101.5 155.5t163.5 100.5t236.5 38t236.5 -38t163.5 -100.5t100.5 -155.5t52.5 -191.5t14.5 -220.5q0 -125 -14.5 -226.5t-52.5 -198t-100.5 -161t-163.5 -103t-236.5 -38.5t-236.5 38.5t-163.5 103t-101.5 161t-53.5 198t-14.5 226.5z M250 707q0 -104 9 -188.5t39 -171.5t79 -144.5t133 -94t196.5 -36.5t196.5 36.5t132 94t78 144.5t39 171t9 188.5t-9 186.5t-38 166t-78 138t-133 89t-196 35q-141 0 -235.5 -49t-140.5 -141.5t-63.5 -191.5t-17.5 -232z" />
<glyph unicode="P" horiz-adv-x="1228" d="M158 0v1393h553q190 0 294.5 -108.5t104.5 -280.5q0 -180 -103.5 -285t-295.5 -105h-445v-614h-108zM266 711h434q143 0 222 74.5t79 218.5q0 133 -79.5 211.5t-221.5 78.5h-434v-583z" />
<glyph unicode="Q" horiz-adv-x="1413" d="M137 707q0 123 14.5 221t53.5 191t101.5 155.5t163.5 100.5t236.5 38t236.5 -38t163.5 -100.5t100.5 -155.5t52.5 -191.5t14.5 -220.5q0 -119 -14.5 -217.5t-49 -187.5t-90 -150.5t-142.5 -98.5t-202 -41q59 -92 258 -110q48 -5 97 -5q59 0 118 7v-99q-70 -7 -133 -7 q-42 0 -82 3q-258 25 -356 179q-158 6 -267.5 64t-167 162.5t-82 224.5t-24.5 276zM250 707q0 -104 9 -188.5t39 -171.5t79 -144.5t133 -94t196.5 -36.5t196.5 36.5t132 94t78 144.5t39 171t9 188.5t-9 186.5t-38 166t-78 138t-133 89t-196 35q-141 0 -235.5 -49 t-140.5 -141.5t-63.5 -191.5t-17.5 -232z" />
<glyph unicode="R" horiz-adv-x="1259" d="M158 0v1393h553q188 0 293.5 -115t105.5 -287q0 -158 -90 -264t-250 -123l385 -604h-127l-371 588h-391v-588h-108zM266 686h420q143 0 229 81t86 224q0 135 -80.5 219t-220.5 84h-434v-608z" />
<glyph unicode="S" horiz-adv-x="1228" d="M137 45l21 92q246 -61 456 -61q184 0 273.5 85t89.5 199q0 59 -27.5 107.5t-61.5 77t-95.5 54.5t-94 35t-94.5 25q-86 20 -159.5 52t-141 80.5t-106.5 119t-39 154.5q0 178 125 263t331 85q221 0 451 -67l-25 -93q-248 61 -426 62q-184 0 -264 -70.5t-80 -181.5 q0 -72 40 -128t111 -92t124 -54.5t125 -36.5q420 -92 420 -383q0 -186 -130.5 -287.5t-345.5 -101.5q-246 -1 -477 65z" />
<glyph unicode="T" horiz-adv-x="1146" d="M117 1294v99h911v-99h-401v-1294h-107v1294h-403z" />
<glyph unicode="U" horiz-adv-x="1310" d="M158 492v901h108v-901q0 -63 4 -107.5t25.5 -108t61.5 -104.5t119 -70.5t188 -29.5q102 0 176.5 29.5t112.5 70.5t59.5 104.5t26.5 109.5t5 106v901h107v-901q0 -264 -121 -388t-375 -124t-375.5 124t-121.5 388z" />
<glyph unicode="V" horiz-adv-x="1331" d="M96 1393h121l459 -1270h2l442 1270h113l-494 -1403h-133z" />
<glyph unicode="W" horiz-adv-x="1925" d="M96 1393h121l340 -1258h2l342 1258h129l342 -1258h2l340 1258h113l-385 -1403h-142l-335 1231h-4l-336 -1231h-142z" />
<glyph unicode="X" horiz-adv-x="1331" d="M104 0l486 733l-436 660h127l381 -568h4l378 568h127l-438 -660l494 -733h-131l-437 643h-4l-428 -643h-123z" />
<glyph unicode="Y" horiz-adv-x="1269" d="M96 1393h125l414 -787h4l416 787h116l-483 -901v-492h-106v492z" />
<glyph unicode="Z" horiz-adv-x="1146" d="M102 0v82l777 1208v4h-736v99h881v-82l-770 -1211v-4h790v-96h-942z" />
<glyph unicode="[" horiz-adv-x="614" d="M137 -287v1966h379v-67h-270v-1833h270v-66h-379z" />
<glyph unicode="\" horiz-adv-x="1105" d="M127 1393h92l758 -1393h-92z" />
<glyph unicode="]" horiz-adv-x="614" d="M96 -221h273v1833h-273v67h379v-1966h-379v66z" />
<glyph unicode="^" horiz-adv-x="778" d="M137 1044l213 390h76l213 -390h-61l-191 328l-188 -328h-62z" />
<glyph unicode="_" horiz-adv-x="1024" d="M137 -123h748v-67h-748v67z" />
<glyph unicode="`" horiz-adv-x="485" d="M133 1393h86l133 -246h-61z" />
<glyph unicode="a" horiz-adv-x="1034" d="M106 268q0 305 431 305h256v134q0 127 -62.5 188t-208.5 61q-154 0 -329 -34l-17 84q193 39 367 38q180 0 266 -74.5t86 -258.5v-711h-102v102h-5q-160 -123 -344 -122q-156 0 -247 76.5t-91 211.5zM209 276q0 -96 70.5 -155.5t201.5 -59.5q180 0 312 111v334h-250 q-184 0 -259 -58.5t-75 -171.5z" />
<glyph unicode="b" d="M137 -2v1436h103v-512h4q141 123 340 122q383 0 383 -532q0 -246 -93.5 -389t-295.5 -143q-201 0 -338 120h-4l-19 -102h-80zM240 176q137 -111 307 -110q313 0 313 446q0 444 -313 444q-166 0 -307 -108v-672z" />
<glyph unicode="c" horiz-adv-x="983" d="M117 512q0 532 477 532q166 0 338 -43l-21 -86q-158 41 -317 41q-193 0 -281 -121.5t-88 -322.5t88 -323.5t281 -122.5q160 0 317 40l21 -83q-172 -43 -338 -43q-477 0 -477 532z" />
<glyph unicode="d" d="M117 512q0 244 93 388t296 144q199 0 334 -120h4v510h102v-1434h-102v102h-4q-137 -123 -338 -122q-385 0 -385 532zM225 512q0 -446 312 -446q176 0 307 110v672q-135 109 -307 108q-312 0 -312 -444z" />
<glyph unicode="e" d="M117 512q0 532 477 532q115 0 195.5 -34.5t120.5 -94t56.5 -121t16.5 -132.5q0 -78 -16 -156h-740q4 -440 396 -440q184 0 319 40l14 -83q-156 -43 -348 -43q-491 0 -491 532zM227 575h641q12 51 12 99q0 18 -1 35q-6 113 -76 183.5t-215 70.5q-334 -1 -361 -388z" />
<glyph unicode="f" horiz-adv-x="706" d="M51 946v70l168 8v152q0 141 62.5 199.5t210.5 58.5q49 0 147 -13l-10 -82q-86 10 -117 11q-109 0 -149.5 -42t-40.5 -147v-137h276v-78h-276v-946h-103v946h-168z" />
<glyph unicode="g" horiz-adv-x="1136" d="M82 -164q0 141 194 246v4q-76 33 -75 111q0 13 2 26q10 106 116 183v4q-174 86 -174 286q0 162 104.5 255t293.5 93q59 0 133 -20h342v-68h-232q143 -84 144 -260q0 -160 -108.5 -247t-278.5 -87q-98 0 -166 29q-35 -33 -58 -74q-22 -39 -22 -76q0 -18 5 -35 q15 -54 81 -56l387 -23q285 -16 285 -215q0 -162 -142.5 -252t-431.5 -90q-399 0 -399 266zM168 -150q0 -209 342 -208q193 0 314.5 65.5t121.5 188.5q0 137 -211 147l-399 20q-86 -53 -127 -98t-41 -115zM244 696q0 -121 79.5 -191.5t219.5 -70.5q133 0 212 72t79 190 q0 123 -79 200t-212 77q-147 0 -223 -75t-76 -202z" />
<glyph unicode="h" d="M137 0v1434h103v-564h4q188 174 395 174q307 0 307 -333v-711h-102v690q0 266 -246 266q-170 0 -358 -155v-801h-103z" />
<glyph unicode="i" horiz-adv-x="378" d="M137 0v1024h103v-1024h-103zM137 1161v232h103v-232h-103z" />
<glyph unicode="j" horiz-adv-x="460" d="M-98 -418l12 82q61 -10 117 -10q109 0 148.5 41t39.5 147v1182h103v-1196q0 -141 -61.5 -199.5t-209.5 -58.5q-71 0 -149 12zM219 1161v232h103v-232h-103z" />
<glyph unicode="k" d="M137 0v1434h103v-889l600 479h127l-404 -338l424 -686h-121l-377 629l-249 -197v-432h-103z" />
<glyph unicode="l" horiz-adv-x="378" d="M137 0v1434h103v-1434h-103z" />
<glyph unicode="m" horiz-adv-x="1699" d="M137 0v1024h103v-154h4q178 174 350 174q231 0 287 -188q184 188 372 188q307 0 308 -333v-711h-103v690q0 266 -246 266q-61 0 -127.5 -29.5t-102.5 -57t-89 -72.5q8 -66 8 -111v-686h-102v694q-4 262 -246 262q-61 0 -128 -29.5t-98.5 -54t-86.5 -71.5v-801h-103z" />
<glyph unicode="n" d="M137 0v1024h103v-154h4q188 174 395 174q307 0 307 -333v-711h-102v690q0 266 -246 266q-170 0 -358 -155v-801h-103z" />
<glyph unicode="o" horiz-adv-x="1126" d="M117 512q0 532 446 532q444 0 444.5 -532t-444.5 -532q-446 0 -446 532zM225 512q0 -446 338 -446t338 446q0 444 -338 444t-338 -444z" />
<glyph unicode="p" d="M137 -410v1434h103v-102h4q141 123 340 122q383 0 383 -532q0 -246 -93.5 -389t-295.5 -143q-197 0 -334 120h-4v-510h-103zM240 176q137 -111 307 -110q313 0 313 446q0 444 -313 444q-166 0 -307 -108v-672z" />
<glyph unicode="q" d="M117 512q0 244 93 388t296 144q199 0 340 -120h4l18 102h78v-1436h-102v512h-4q-137 -123 -338 -122q-385 0 -385 532zM225 512q0 -446 312 -446q176 0 307 110v672q-135 109 -307 108q-312 0 -312 -444z" />
<glyph unicode="r" horiz-adv-x="757" d="M137 0v1024h103v-164h4q205 184 415 184v-98q-113 0 -227.5 -48t-191.5 -107v-791h-103z" />
<glyph unicode="s" horiz-adv-x="983" d="M106 23l21 83q168 -43 385 -43q70 0 122 18.5t77.5 42t40 55.5t17.5 51.5t3 37.5q0 72 -58.5 122t-224.5 85q-115 23 -187.5 51.5t-123.5 92t-51 159.5q0 127 90 196.5t264 69.5q217 0 389 -43l-20 -86q-174 45 -365 46q-70 0 -121 -16.5t-75.5 -37t-38.5 -49.5 t-17.5 -45t-3.5 -33q0 -74 55.5 -125t217.5 -84q193 -41 282.5 -105.5t89.5 -191.5q0 -141 -90 -217.5t-262 -76.5q-244 0 -416 43z" />
<glyph unicode="t" horiz-adv-x="768" d="M51 946v70l168 8l14 287h89v-287h317v-78h-317v-629q0 -131 43 -192.5t157 -61.5q53 0 117 11l10 -82q-74 -12 -157 -12q-143 0 -208 71.5t-65 251.5v643h-168z" />
<glyph unicode="u" d="M137 311v713h103v-692q0 -266 245 -266q168 0 359 157v801h102v-1024h-102v154h-4q-188 -174 -396 -174q-307 -1 -307 331z" />
<glyph unicode="v" horiz-adv-x="1146" d="M113 1024h114l346 -913h5l346 913h110l-401 -1034h-121z" />
<glyph unicode="w" horiz-adv-x="1617" d="M113 1024h112l277 -913h4l256 913h98l266 -913h4l267 913h108l-317 -1034h-113l-264 874h-4l-256 -874h-113z" />
<glyph unicode="x" horiz-adv-x="1116" d="M96 0l398 535l-367 489h121l311 -414h4l305 414h113l-365 -487l402 -537h-123l-344 457h-4l-336 -457h-115z" />
<glyph unicode="y" horiz-adv-x="1146" d="M113 1024h114l361 -930h4l332 930h110l-409 -1112q-63 -180 -151.5 -261t-217.5 -81q-72 0 -123 12l10 88q43 -10 92.5 -10t93.5 22.5t70.5 49t56 80t41 80t33.5 83.5z" />
<glyph unicode="z" horiz-adv-x="962" d="M74 0v76l665 862v4h-635v82h768v-78l-663 -860v-4h680v-82h-815z" />
<glyph unicode="{" horiz-adv-x="696" d="M137 659v72q51 8 82 28.5t43 63.5t15.5 75t3.5 95q0 59 -10.5 191.5t-10.5 195.5q0 176 83 237.5t255 61.5v-51q-43 0 -65.5 -2t-59.5 -14.5t-55.5 -37t-33.5 -72.5t-15 -120q0 -61 11 -219.5t11 -222.5q0 -115 -42 -169t-124 -73v-4q82 -18 124 -72.5t42 -168.5 q0 -63 -11 -222t-11 -221q0 -72 15 -120t33.5 -72.5t55.5 -36.5t59.5 -14.5t65.5 -2.5v-51q-172 0 -255 61.5t-83 237.5q0 63 10.5 195.5t10.5 191.5q0 63 -3.5 95t-15.5 74t-43 62.5t-82 28.5z" />
<glyph unicode="|" horiz-adv-x="389" d="M158 -205v1802h71v-1802h-71z" />
<glyph unicode="}" horiz-adv-x="696" d="M96 -236q43 0 66.5 2.5t60.5 14.5t55.5 36.5t34 73t15.5 119.5q0 61 -11.5 220t-11.5 223q0 115 42 169t124 72v4q-82 18 -124 72.5t-42 169.5q0 63 11.5 222t11.5 220q0 72 -15.5 120t-34 72.5t-55.5 37t-60.5 14.5t-66.5 2v51q172 0 255 -61.5t83 -237.5 q0 -63 -10 -195t-10 -192q0 -63 3 -95t15 -75t43 -63.5t82 -28.5v-72q-51 -8 -82 -28.5t-43 -62.5t-15 -73.5t-3 -95.5q0 -59 10 -191t10 -196q0 -176 -83 -237.5t-255 -61.5v51z" />
<glyph unicode="~" horiz-adv-x="933" d="M92 608q68 88 115 123t100 35q51 0 194.5 -63.5t174.5 -63.5q76 0 133 100l33 -32q-37 -72 -75 -106t-91 -34q-39 0 -183.5 61.5t-183.5 61.5q-25 0 -42 -5t-54 -30.5t-86 -74.5z" />
<glyph unicode="&#xa1;" horiz-adv-x="378" d="M137 -369l6 957h93l4 -957h-103zM137 788v236h103v-236h-103z" />
<glyph unicode="&#xa2;" horiz-adv-x="1058" d="M123 512q0 233 122 379.5t337 152.5v185h51v-187q143 -4 303 -71l-12 -82q-178 63 -291 67v-888q113 0 291 67l12 -82q-158 -70 -303 -71v-187h-51v185q-215 6 -337 152.5t-122 379.5zM229 512q0 -184 92.5 -310t260.5 -134v886q-166 -8 -259.5 -134t-93.5 -308z" />
<glyph unicode="&#xa3;" horiz-adv-x="1253" d="M123 0v92h102v574h-102v82h102v317q0 178 123 263t328 85q272 0 454 -113l-43 -86q-184 100 -407 101q-188 0 -270 -73t-82 -189v-305h501v-82h-501v-574h747v-92h-952z" />
<glyph unicode="&#xa4;" horiz-adv-x="1050" d="M143 928l17 16l162 -184q90 74 204 74q113 0 203 -74l160 184l18 -16l-159 -183q102 -96 102 -235t-100 -234l155 -176l-18 -18l-158 178q-88 -72 -203 -72q-117 0 -204 72l-156 -178l-19 18l156 176q-98 94 -98 233.5t98 233.5zM229 510q0 -121 88.5 -209t209 -88 t209.5 88t89 209t-89 210t-209.5 89t-209 -89t-88.5 -210z" />
<glyph unicode="&#xa5;" horiz-adv-x="1320" d="M123 1393h123l416 -787h4l413 787h119l-467 -867h344v-65h-360v-461h-109v461h-360v65h342z" />
<glyph unicode="&#xa6;" horiz-adv-x="348" d="M137 -205v819h72v-819h-72zM137 778v819h72v-819h-72z" />
<glyph unicode="&#xa7;" horiz-adv-x="1198" d="M123 -262l20 92q246 -61 455 -61q184 0 274.5 85t90.5 199q0 49 -16.5 91t-52.5 72t-65.5 50.5t-84 39t-80 26.5t-76.5 20q-86 20 -160 52t-140.5 80t-105.5 119t-39 155h113q0 -213 399 -314q420 -94 420 -383q0 -186 -131 -287.5t-346 -101.5q-246 0 -475 66zM143 1372 q0 178 125 263t330 85q225 0 451 -67l-25 -92q-246 61 -426 61q-184 0 -263 -70.5t-79 -181.5q0 -72 40 -128t110.5 -92t124 -54.5t124.5 -36.5q188 -43 305 -133t115 -258h-112q0 49 -16.5 91t-52.5 71.5t-65.5 50t-84 39t-80 26.5t-76.5 21q-86 20 -160 52t-140.5 80 t-105.5 118.5t-39 154.5z" />
<glyph unicode="&#xa8;" horiz-adv-x="884" d="M133 1178v215h86v-215h-86zM666 1178v215h86v-215h-86z" />
<glyph unicode="&#xa9;" horiz-adv-x="1566" d="M61 696q0 299 211 508t510 209q301 0 512 -209t211 -508t-211 -507.5t-512 -208.5q-299 0 -510 208.5t-211 507.5zM115 696.5q0 -276.5 195.5 -471t472 -194.5t473 194.5t196.5 471t-196.5 470t-473 193.5t-472 -193.5t-195.5 -470zM459 705q0 170 83 261t244 91 q145 0 248 -72l-24 -53q-100 63 -219 63q-260 0 -261 -290q0 -313 261 -314q123 0 217 62l26 -50q-102 -72 -248 -71q-162 0 -244.5 96.5t-82.5 276.5z" />
<glyph unicode="&#xaa;" horiz-adv-x="608" d="M106 1016q0 152 216 151h129v66q0 66 -31 96.5t-105 30.5q-63 0 -163 -19q0 6 -4.5 20.5t-4.5 22.5q98 18 183 19q90 0 133 -37t43 -129v-356h-51v51q-82 -61 -175 -62q-78 0 -124 39t-46 107zM158 1020q0 -49 35.5 -79t101.5 -30q90 0 156 56v168h-125q-168 0 -168 -115 z" />
<glyph unicode="&#xab;" horiz-adv-x="1294" d="M137 479v66l502 340v-94l-393 -279l393 -279v-96zM655 479v66l502 340v-94l-395 -279l395 -279v-96z" />
<glyph unicode="&#xac;" horiz-adv-x="1208" d="M178 500v86h850v-316h-86v230h-764z" />
<glyph unicode="&#xad;" horiz-adv-x="1024" d="M137 500v86h748v-86h-748z" />
<glyph unicode="&#xae;" horiz-adv-x="1566" d="M61 696q0 299 211 508t510 209q301 0 512 -209t211 -508t-211 -507.5t-512 -208.5q-299 0 -510 208.5t-211 507.5zM115 696.5q0 -276.5 195.5 -471t472 -194.5t473 194.5t196.5 471t-196.5 470t-473 193.5t-472 -193.5t-195.5 -470zM539 344v705h274q119 0 182.5 -60.5 t63.5 -161.5q0 -98 -52.5 -156.5t-148.5 -66.5l221 -260h-84l-211 252h-178v-252h-67zM606 655h199q184 0 184 172q0 74 -46 117t-130 43h-207v-332z" />
<glyph unicode="&#xaf;" horiz-adv-x="870" d="M133 1243v68h604v-68h-604z" />
<glyph unicode="&#xb0;" horiz-adv-x="534" d="M92 1217q0 74 51.5 125t124.5 51q72 0 123 -51.5t51 -124.5q0 -72 -51 -124.5t-123 -52.5q-74 0 -125 52.5t-51 124.5zM137 1216.5q0 -55.5 37 -93.5t94 -38q55 0 92 38t37 93.5t-36.5 93.5t-92.5 38q-57 0 -94 -38t-37 -93.5z" />
<glyph unicode="&#xb1;" horiz-adv-x="1024" d="M137 123v86h332v297h-332v88h332v326h86v-326h330v-88h-330v-297h330v-86h-748z" />
<glyph unicode="&#xb2;" horiz-adv-x="645" d="M106 1085v58q360 244 361 432q0 68 -33 107.5t-64.5 48t-64.5 8.5q-82 0 -180 -49l-19 45q109 57 213 57q102 0 154.5 -58.5t52.5 -146.5q0 -213 -338 -448v-2h349v-52h-431z" />
<glyph unicode="&#xb3;" horiz-adv-x="665" d="M106 1118l21 45q92 -51 195 -51q98 0 137 42t39 91q0 154 -191 154h-82v49h78q84 0 130 43t46 104q0 53 -33.5 95.5t-121.5 42.5q-76 0 -179 -50l-18 46q94 53 203 53q98 0 152.5 -48t54.5 -135q0 -63 -40 -107t-102 -62q74 -14 118 -60.5t44 -114.5q0 -190 -233 -190 q-132 0 -218 53z" />
<glyph unicode="&#xb4;" horiz-adv-x="485" d="M133 1147l133 246h86l-157 -246h-62z" />
<glyph unicode="&#xb5;" d="M-180 -418l12 82q61 -10 117 -10q113 0 150.5 62.5t37.5 191.5v1116h103v-711q10 -248 245 -247q168 0 359 157v801h102v-1024h-102v154h-4q-178 -160 -359 -168q-186 -4 -241 127v-205q0 -188 -65.5 -263t-211.5 -75q-65 0 -143 12z" />
<glyph unicode="&#xb6;" horiz-adv-x="1140" d="M92 999q0 182 112.5 288t299.5 106h545v-47h-168v-1346h-52v1346h-137v-742h-188q-184 0 -298 109.5t-114 285.5z" />
<glyph unicode="&#xb7;" horiz-adv-x="460" d="M178 393v236h103v-236h-103z" />
<glyph unicode="&#xb8;" horiz-adv-x="595" d="M133 -395l8 41q66 -20 115 -21q76 0 107.5 38t31.5 79t-32.5 74.5t-116.5 33.5v150h45v-119q172 -8 172 -145q0 -72 -51.5 -114t-139.5 -42q-63 0 -139 25z" />
<glyph unicode="&#xb9;" horiz-adv-x="624" d="M100 1085v48h215v585q-33 -18 -96 -54t-94 -54l-19 47q152 72 228 131h39v-655h215v-48h-488z" />
<glyph unicode="&#xba;" horiz-adv-x="659" d="M106 1136.5q0 266.5 226 266.5q221 0 221 -266.5t-221 -266.5q-226 0 -226 266.5zM162 1136.5q0 -223.5 170 -223.5q168 0 168 223.5t-168 223.5q-170 0 -170 -223.5z" />
<glyph unicode="&#xbb;" horiz-adv-x="1294" d="M137 137v96l395 279l-395 279v94l502 -340v-66zM655 137v96l394 279l-394 279v94l502 -340v-66z" />
<glyph unicode="&#xbc;" horiz-adv-x="1638" d="M102 676v47h215v586q-14 -8 -192 -109l-16 47q152 72 227 131h39v-655h215v-47h-488zM514 0l758 1393h41l-758 -1393h-41zM1044 195v49q221 242 314 452h74v-452h104v-49h-104v-195h-58v195h-330zM1106 244h268v377q-90 -176 -268 -377z" />
<glyph unicode="&#xbd;" horiz-adv-x="1638" d="M102 676v47h215v586q-14 -8 -192 -109l-16 47q152 72 227 131h39v-655h215v-47h-488zM473 0l758 1393h41l-758 -1393h-41zM1106 0v57q360 246 360 432q0 68 -32.5 108t-64.5 48t-64 8q-82 0 -181 -49l-18 45q109 57 213 58q102 0 154.5 -58.5t52.5 -146.5 q0 -213 -338 -449v-2h348v-51h-430z" />
<glyph unicode="&#xbe;" horiz-adv-x="1638" d="M102 709l19 45q92 -51 196 -52q98 0 136.5 42t38.5 92q0 154 -189 153h-84v49h80q84 0 130 43t46 105q0 53 -34.5 95t-123.5 42q-76 0 -178 -49l-18 45q92 53 205 53q98 0 152 -48t54 -134q0 -63 -39.5 -107.5t-101.5 -62.5q74 -14 118 -60.5t44 -113.5q0 -190 -236 -191 q-133 1 -215 54zM514 0l758 1393h41l-758 -1393h-41zM1044 195v49q221 242 314 452h74v-452h104v-49h-104v-195h-58v195h-330zM1106 244h268v377q-90 -176 -268 -377z" />
<glyph unicode="&#xbf;" horiz-adv-x="983" d="M117 -47q0 104 42 181t101 121t118.5 82t101.5 86t42 109v62h92v-62q0 -66 -28.5 -118t-72.5 -83.5t-94 -69.5t-94 -72.5t-73 -93t-29 -132.5q0 -256 299 -256q125 0 312 70l30 -88q-190 -78 -368 -78q-109 0 -187 30.5t-117.5 83t-57 109t-17.5 119.5zM516 788v236h102 v-236h-102z" />
<glyph unicode="&#xc0;" horiz-adv-x="1331" d="M96 0l510 1403h133l494 -1403h-119l-137 391h-623l-143 -391h-115zM379 483h575l-282 787h-4zM471 1700h86l133 -246h-61z" />
<glyph unicode="&#xc1;" horiz-adv-x="1331" d="M96 0l510 1403h133l494 -1403h-119l-137 391h-623l-143 -391h-115zM379 483h575l-282 787h-4zM649 1477l133 245h86l-157 -245h-62z" />
<glyph unicode="&#xc2;" horiz-adv-x="1331" d="M96 0l510 1403h133l494 -1403h-119l-137 391h-623l-143 -391h-115zM379 483h575l-282 787h-4zM414 1495l217 246h67l217 -246h-61l-190 195l-189 -195h-61z" />
<glyph unicode="&#xc3;" horiz-adv-x="1331" d="M96 0l510 1403h133l494 -1403h-119l-137 391h-623l-143 -391h-115zM342 1567q66 86 113 118.5t102 32.5q51 0 143.5 -63.5t122.5 -63.5q72 0 133 105l33 -31q-70 -139 -166 -139q-39 0 -132 61.5t-132 61.5q-41 0 -73.5 -18.5t-108.5 -94.5zM379 483h575l-282 787h-4z " />
<glyph unicode="&#xc4;" horiz-adv-x="1331" d="M96 0l510 1403h133l494 -1403h-119l-137 391h-623l-143 -391h-115zM356 1511v215h86v-215h-86zM379 483h575l-282 787h-4zM889 1511v215h86v-215h-86z" />
<glyph unicode="&#xc5;" horiz-adv-x="1331" d="M96 0l510 1403h133l494 -1403h-119l-137 391h-623l-143 -391h-115zM379 483h575l-282 787h-4zM516 1617.5q0 63.5 43 105.5t107 42q66 0 108.5 -42t42.5 -105.5t-43 -106.5t-108 -43q-63 0 -106.5 43t-43.5 106.5zM557 1618q0 -47 30.5 -79t78 -32t78 32t30.5 79 t-30.5 79t-77.5 32q-45 0 -77 -32t-32 -79z" />
<glyph unicode="&#xc6;" horiz-adv-x="1896" d="M96 0l756 1393h895v-99h-731v-522h639v-96h-639v-580h741v-96h-850v606h-366l-334 -606h-111zM580 694h327v598h-4z" />
<glyph unicode="&#xc7;" horiz-adv-x="1269" d="M137 707q0 123 14.5 221t53.5 191t101.5 155.5t163.5 100.5t237 38q231 0 460 -67l-24 -93q-248 61 -428 62q-139 0 -234.5 -48t-143.5 -138.5t-67.5 -190.5t-19.5 -231q0 -139 19.5 -244t67.5 -197t143 -141t235 -49q180 0 428 61l24 -92q-227 -66 -448 -65v-99 q72 -4 121 -37.5t49 -107.5q0 -72 -50.5 -114t-138.5 -42q-61 0 -141 25l10 41q66 -20 117 -21q74 0 104.5 37t30.5 80q0 41 -32.5 74.5t-116.5 33.5v130q-158 6 -266.5 63t-165 160.5t-80 224.5t-23.5 279z" />
<glyph unicode="&#xc8;" horiz-adv-x="1146" d="M158 0v1393h839v-99h-731v-522h639v-96h-639v-580h742v-96h-850zM422 1700h86l133 -246h-61z" />
<glyph unicode="&#xc9;" horiz-adv-x="1146" d="M158 0v1393h839v-99h-731v-522h639v-96h-639v-580h742v-96h-850zM522 1477l133 245h86l-157 -245h-62z" />
<glyph unicode="&#xca;" horiz-adv-x="1146" d="M158 0v1393h839v-99h-731v-522h639v-96h-639v-580h742v-96h-850zM346 1495l217 246h68l217 -246h-62l-190 195l-188 -195h-62z" />
<glyph unicode="&#xcb;" horiz-adv-x="1146" d="M158 0v1393h839v-99h-731v-522h639v-96h-639v-580h742v-96h-850zM270 1511v215h86v-215h-86zM803 1511v215h86v-215h-86z" />
<glyph unicode="&#xcc;" horiz-adv-x="423" d="M25 1700h86l133 -246h-62zM158 0v1393h108v-1393h-108z" />
<glyph unicode="&#xcd;" horiz-adv-x="423" d="M158 0v1393h108v-1393h-108zM182 1477l133 245h86l-157 -245h-62z" />
<glyph unicode="&#xce;" horiz-adv-x="423" d="M-39 1495l217 246h68l217 -246h-62l-190 195l-188 -195h-62zM156 0v1393h108v-1393h-108z" />
<glyph unicode="&#xcf;" horiz-adv-x="423" d="M-98 1511v215h86v-215h-86zM160 0v1393h108v-1393h-108zM434 1511v215h86v-215h-86z" />
<glyph unicode="&#xd0;" horiz-adv-x="1341" d="M55 674v65h113v654h475q559 0 559 -686q0 -707 -559 -707h-475v674h-113zM276 96h367q446 0 447 611q0 129 -19.5 227t-68 183t-138.5 131t-221 46h-367v-555h267v-65h-267v-578z" />
<glyph unicode="&#xd1;" horiz-adv-x="1331" d="M158 0v1393h108l797 -1192h4v1192h104v-1393h-106l-797 1182h-4v-1182h-106zM342 1567q66 86 113 118.5t102 32.5q51 0 143.5 -63.5t122.5 -63.5q72 0 133 105l33 -31q-70 -139 -166 -139q-39 0 -132 61.5t-132 61.5q-41 0 -73.5 -18.5t-108.5 -94.5z" />
<glyph unicode="&#xd2;" horiz-adv-x="1413" d="M137 707q0 123 14.5 221t53.5 191t101.5 155.5t163.5 100.5t236.5 38t236.5 -38t163.5 -100.5t100.5 -155.5t52.5 -191.5t14.5 -220.5q0 -125 -14.5 -226.5t-52.5 -198t-100.5 -161t-163.5 -103t-236.5 -38.5t-236.5 38.5t-163.5 103t-101.5 161t-53.5 198t-14.5 226.5z M250 707q0 -104 9 -188.5t39 -171.5t79 -144.5t133 -94t196.5 -36.5t196.5 36.5t132 94t78 144.5t39 171t9 188.5t-9 186.5t-38 166t-78 138t-133 89t-196 35q-141 0 -235.5 -49t-140.5 -141.5t-63.5 -191.5t-17.5 -232zM537 1700h86l133 -246h-62z" />
<glyph unicode="&#xd3;" horiz-adv-x="1413" d="M137 707q0 123 14.5 221t53.5 191t101.5 155.5t163.5 100.5t236.5 38t236.5 -38t163.5 -100.5t100.5 -155.5t52.5 -191.5t14.5 -220.5q0 -125 -14.5 -226.5t-52.5 -198t-100.5 -161t-163.5 -103t-236.5 -38.5t-236.5 38.5t-163.5 103t-101.5 161t-53.5 198t-14.5 226.5z M250 707q0 -104 9 -188.5t39 -171.5t79 -144.5t133 -94t196.5 -36.5t196.5 36.5t132 94t78 144.5t39 171t9 188.5t-9 186.5t-38 166t-78 138t-133 89t-196 35q-141 0 -235.5 -49t-140.5 -141.5t-63.5 -191.5t-17.5 -232zM672 1477l133 245h86l-158 -245h-61z" />
<glyph unicode="&#xd4;" horiz-adv-x="1413" d="M137 707q0 123 14.5 221t53.5 191t101.5 155.5t163.5 100.5t236.5 38t236.5 -38t163.5 -100.5t100.5 -155.5t52.5 -191.5t14.5 -220.5q0 -125 -14.5 -226.5t-52.5 -198t-100.5 -161t-163.5 -103t-236.5 -38.5t-236.5 38.5t-163.5 103t-101.5 161t-53.5 198t-14.5 226.5z M250 707q0 -104 9 -188.5t39 -171.5t79 -144.5t133 -94t196.5 -36.5t196.5 36.5t132 94t78 144.5t39 171t9 188.5t-9 186.5t-38 166t-78 138t-133 89t-196 35q-141 0 -235.5 -49t-140.5 -141.5t-63.5 -191.5t-17.5 -232zM455 1495l217 246h67l217 -246h-61l-190 195 l-189 -195h-61z" />
<glyph unicode="&#xd5;" horiz-adv-x="1413" d="M137 707q0 123 14.5 221t53.5 191t101.5 155.5t163.5 100.5t236.5 38t236.5 -38t163.5 -100.5t100.5 -155.5t52.5 -191.5t14.5 -220.5q0 -125 -14.5 -226.5t-52.5 -198t-100.5 -161t-163.5 -103t-236.5 -38.5t-236.5 38.5t-163.5 103t-101.5 161t-53.5 198t-14.5 226.5z M250 707q0 -104 9 -188.5t39 -171.5t79 -144.5t133 -94t196.5 -36.5t196.5 36.5t132 94t78 144.5t39 171t9 188.5t-9 186.5t-38 166t-78 138t-133 89t-196 35q-141 0 -235.5 -49t-140.5 -141.5t-63.5 -191.5t-17.5 -232zM383 1567q66 86 113 118.5t102 32.5 q51 0 143.5 -63.5t122.5 -63.5q72 0 133 105l33 -31q-70 -139 -166 -139q-39 0 -132 61.5t-132 61.5q-41 0 -73.5 -18.5t-108.5 -94.5z" />
<glyph unicode="&#xd6;" horiz-adv-x="1413" d="M137 707q0 123 14.5 221t53.5 191t101.5 155.5t163.5 100.5t236.5 38t236.5 -38t163.5 -100.5t100.5 -155.5t52.5 -191.5t14.5 -220.5q0 -125 -14.5 -226.5t-52.5 -198t-100.5 -161t-163.5 -103t-236.5 -38.5t-236.5 38.5t-163.5 103t-101.5 161t-53.5 198t-14.5 226.5z M250 707q0 -104 9 -188.5t39 -171.5t79 -144.5t133 -94t196.5 -36.5t196.5 36.5t132 94t78 144.5t39 171t9 188.5t-9 186.5t-38 166t-78 138t-133 89t-196 35q-141 0 -235.5 -49t-140.5 -141.5t-63.5 -191.5t-17.5 -232zM397 1511v215h86v-215h-86zM930 1511v215h86v-215 h-86z" />
<glyph unicode="&#xd7;" horiz-adv-x="980" d="M137 252l293 291l-293 291l62 61l293 -291l290 291l62 -61l-291 -291l291 -291l-62 -62l-290 291l-293 -291z" />
<glyph unicode="&#xd8;" horiz-adv-x="1413" d="M92 -23l164 205q-119 176 -119 525q0 123 14.5 221t53.5 191t101.5 155.5t163.5 100.5t237 38q264 0 405 -151l168 211l41 -31l-174 -217q127 -166 127 -518q0 -125 -14.5 -226.5t-52.5 -198t-100.5 -161t-163.5 -103t-236 -38.5q-281 0 -418 165l-158 -200zM250 707 q0 -287 82 -428l717 901q-111 141 -342 141q-141 0 -235.5 -49t-140.5 -141.5t-63.5 -191.5t-17.5 -232zM356 227q109 -156 351 -155q113 0 196.5 36.5t131.5 94t78 144.5t39 171t9 189q0 287 -88 426z" />
<glyph unicode="&#xd9;" horiz-adv-x="1310" d="M158 492v901h108v-901q0 -63 4 -107.5t25.5 -108t61.5 -104.5t119 -70.5t188 -29.5q102 0 176.5 29.5t112.5 70.5t59.5 104.5t26.5 109.5t5 106v901h107v-901q0 -264 -121 -388t-375 -124t-375.5 124t-121.5 388zM473 1700h86l133 -246h-61z" />
<glyph unicode="&#xda;" horiz-adv-x="1310" d="M158 492v901h108v-901q0 -63 4 -107.5t25.5 -108t61.5 -104.5t119 -70.5t188 -29.5q102 0 176.5 29.5t112.5 70.5t59.5 104.5t26.5 109.5t5 106v901h107v-901q0 -264 -121 -388t-375 -124t-375.5 124t-121.5 388zM623 1477l133 245h86l-158 -245h-61z" />
<glyph unicode="&#xdb;" horiz-adv-x="1310" d="M158 492v901h108v-901q0 -63 4 -107.5t25.5 -108t61.5 -104.5t119 -70.5t188 -29.5q102 0 176.5 29.5t112.5 70.5t59.5 104.5t26.5 109.5t5 106v901h107v-901q0 -264 -121 -388t-375 -124t-375.5 124t-121.5 388zM403 1495l218 246h67l217 -246h-61l-191 195l-188 -195 h-62z" />
<glyph unicode="&#xdc;" horiz-adv-x="1310" d="M158 492v901h108v-901q0 -63 4 -107.5t25.5 -108t61.5 -104.5t119 -70.5t188 -29.5q102 0 176.5 29.5t112.5 70.5t59.5 104.5t26.5 109.5t5 106v901h107v-901q0 -264 -121 -388t-375 -124t-375.5 124t-121.5 388zM346 1511v215h86v-215h-86zM879 1511v215h86v-215h-86z " />
<glyph unicode="&#xdd;" horiz-adv-x="1269" d="M96 1393h125l414 -787h4l416 787h116l-483 -901v-492h-106v492zM623 1477l133 245h86l-158 -245h-61z" />
<glyph unicode="&#xde;" horiz-adv-x="1228" d="M158 0v1393h108v-297h441q188 0 295.5 -109.5t107.5 -279.5q0 -180 -105.5 -285t-297.5 -105h-441v-317h-108zM266 414h430q143 0 224 75.5t81 217.5q0 133 -81.5 211.5t-223.5 78.5h-430v-583z" />
<glyph unicode="&#xdf;" horiz-adv-x="1320" d="M51 946v70l168 8q0 410 436 410q188 0 291 -81t103 -227q0 -88 -42 -156.5t-92.5 -101t-92.5 -69.5t-42 -70q0 -57 101 -92q172 -51 251.5 -132t79.5 -202q0 -166 -111.5 -244.5t-273.5 -78.5q-135 0 -264 40l15 82q125 -41 241 -41q94 0 157.5 29t88.5 74t33 75.5 t8 61.5q0 53 -21.5 97t-64.5 75t-70.5 47.5t-81.5 36.5l-51 18q-76 31 -106.5 63t-30.5 81q0 43 40 85t87 73.5t87 93t40 139.5q0 72 -28.5 122t-77 74.5t-92.5 34t-89 9.5q-102 0 -171.5 -34t-100.5 -93.5t-42 -115.5t-11 -130v-977h-103v946h-168z" />
<glyph unicode="&#xe0;" horiz-adv-x="1034" d="M106 268q0 305 431 305h256v134q0 127 -62.5 188t-208.5 61q-154 0 -329 -34l-17 84q193 39 367 38q180 0 266 -74.5t86 -258.5v-711h-102v102h-5q-160 -123 -344 -122q-156 0 -247 76.5t-91 211.5zM209 276q0 -96 70.5 -155.5t201.5 -59.5q180 0 312 111v334h-250 q-184 0 -259 -58.5t-75 -171.5zM362 1393h87l133 -246h-62z" />
<glyph unicode="&#xe1;" horiz-adv-x="1034" d="M106 268q0 305 431 305h256v134q0 127 -62.5 188t-208.5 61q-154 0 -329 -34l-17 84q193 39 367 38q180 0 266 -74.5t86 -258.5v-711h-102v102h-5q-160 -123 -344 -122q-156 0 -247 76.5t-91 211.5zM209 276q0 -96 70.5 -155.5t201.5 -59.5q180 0 312 111v334h-250 q-184 0 -259 -58.5t-75 -171.5zM498 1147l133 246h86l-158 -246h-61z" />
<glyph unicode="&#xe2;" horiz-adv-x="1034" d="M106 268q0 305 431 305h256v134q0 127 -62.5 188t-208.5 61q-154 0 -329 -34l-17 84q193 39 367 38q180 0 266 -74.5t86 -258.5v-711h-102v102h-5q-160 -123 -344 -122q-156 0 -247 76.5t-91 211.5zM209 276q0 -96 70.5 -155.5t201.5 -59.5q180 0 312 111v334h-250 q-184 0 -259 -58.5t-75 -171.5zM285 1147l217 246h67l217 -246h-61l-190 194l-189 -194h-61z" />
<glyph unicode="&#xe3;" horiz-adv-x="1034" d="M106 268q0 305 431 305h256v134q0 127 -62.5 188t-208.5 61q-154 0 -329 -34l-17 84q193 39 367 38q180 0 266 -74.5t86 -258.5v-711h-102v102h-5q-160 -123 -344 -122q-156 0 -247 76.5t-91 211.5zM209 276q0 -96 70.5 -155.5t201.5 -59.5q180 0 312 111v334h-250 q-184 0 -259 -58.5t-75 -171.5zM227 1219q66 86 113 118.5t102 32.5q51 0 143.5 -63.5t123.5 -63.5q72 0 133 105l32 -31q-70 -139 -165 -139q-39 0 -132.5 61t-132.5 61q-41 0 -73.5 -18t-108.5 -94z" />
<glyph unicode="&#xe4;" horiz-adv-x="1034" d="M106 268q0 305 431 305h256v134q0 127 -62.5 188t-208.5 61q-154 0 -329 -34l-17 84q193 39 367 38q180 0 266 -74.5t86 -258.5v-711h-102v102h-5q-160 -123 -344 -122q-156 0 -247 76.5t-91 211.5zM209 276q0 -96 70.5 -155.5t201.5 -59.5q180 0 312 111v334h-250 q-184 0 -259 -58.5t-75 -171.5zM227 1178v215h86v-215h-86zM760 1178v215h86v-215h-86z" />
<glyph unicode="&#xe5;" horiz-adv-x="1034" d="M106 268q0 305 431 305h256v134q0 127 -62.5 188t-208.5 61q-154 0 -329 -34l-17 84q193 39 367 38q180 0 266 -74.5t86 -258.5v-711h-102v102h-5q-160 -123 -344 -122q-156 0 -247 76.5t-91 211.5zM209 276q0 -96 70.5 -155.5t201.5 -59.5q180 0 312 111v334h-250 q-184 0 -259 -58.5t-75 -171.5zM395 1269.5q0 63.5 43 105.5t107 42q66 0 108.5 -42t42.5 -105.5t-43 -106.5t-108 -43q-63 0 -106.5 43t-43.5 106.5zM436 1270q0 -47 31 -79t78 -32t77.5 32t30.5 79t-30.5 78.5t-77.5 31.5q-45 0 -77 -31.5t-32 -78.5z" />
<glyph unicode="&#xe6;" horiz-adv-x="1761" d="M106 268q0 305 431 305h256v134q0 127 -62.5 188t-208.5 61q-154 0 -329 -34q-4 14 -9.5 42.5t-7.5 41.5q176 35 346 38q113 0 176 -34q145 -55 168 -234q92 268 404 268q119 0 202.5 -38.5t122.5 -96t54.5 -134.5t11.5 -141.5t-19 -127.5h-739q4 -440 395 -440 q184 0 320 40l14 -83q-156 -43 -348 -43q-297 0 -414 192q-174 -193 -426 -192q-150 0 -244 73.5t-94 214.5zM209 276q0 -96 70.5 -155.5t201.5 -59.5q211 0 361 154q-49 111 -49 291h-250q-184 0 -259 -58.5t-75 -171.5zM903 575h641q18 66 10 134.5t-33.5 125t-92 92.5 t-164.5 36q-334 -1 -361 -388z" />
<glyph unicode="&#xe7;" horiz-adv-x="983" d="M117 512q0 532 477 532q166 0 338 -43l-21 -86q-158 41 -317 41q-193 0 -281 -121.5t-88 -322.5t88 -323.5t281 -122.5q160 0 317 40l21 -83q-172 -43 -334 -43v-99q72 -4 122 -37.5t50 -107.5q0 -72 -51 -114t-139 -42q-63 0 -140 25l9 41q66 -20 116 -21q74 0 104.5 37 t30.5 80q0 41 -32.5 74.5t-116.5 33.5v132q-434 20 -434 530z" />
<glyph unicode="&#xe8;" d="M117 512q0 532 477 532q115 0 195.5 -34.5t120.5 -94t56.5 -121t16.5 -132.5q0 -78 -16 -156h-740q4 -440 396 -440q184 0 319 40l14 -83q-156 -43 -348 -43q-491 0 -491 532zM227 575h641q16 70 11 134q-6 113 -76 183.5t-215 70.5q-334 -1 -361 -388zM403 1393h86 l134 -246h-62z" />
<glyph unicode="&#xe9;" d="M117 512q0 532 477 532q115 0 195.5 -34.5t120.5 -94t56.5 -121t16.5 -132.5q0 -78 -16 -156h-740q4 -440 396 -440q184 0 319 40l14 -83q-156 -43 -348 -43q-491 0 -491 532zM227 575h641q16 70 11 134q-6 113 -76 183.5t-215 70.5q-334 -1 -361 -388zM555 1147l133 246 h86l-158 -246h-61z" />
<glyph unicode="&#xea;" d="M117 512q0 532 477 532q115 0 195.5 -34.5t120.5 -94t56.5 -121t16.5 -132.5q0 -78 -16 -156h-740q4 -440 396 -440q184 0 319 40l14 -83q-156 -43 -348 -43q-491 0 -491 532zM227 575h641q16 70 11 134q-6 113 -76 183.5t-215 70.5q-334 -1 -361 -388zM291 1147l217 246 h67l218 -246h-62l-190 194l-189 -194h-61z" />
<glyph unicode="&#xeb;" d="M117 512q0 532 477 532q115 0 195.5 -34.5t120.5 -94t56.5 -121t16.5 -132.5q0 -78 -16 -156h-740q4 -440 396 -440q184 0 319 40l14 -83q-156 -43 -348 -43q-491 0 -491 532zM227 575h641q16 70 11 134q-6 113 -76 183.5t-215 70.5q-334 -1 -361 -388zM233 1178v215h86 v-215h-86zM766 1178v215h86v-215h-86z" />
<glyph unicode="&#xec;" horiz-adv-x="378" d="M2 1393h86l133 -246h-61zM137 0v1024h103v-1024h-103z" />
<glyph unicode="&#xed;" horiz-adv-x="378" d="M137 0v1024h103v-1024h-103zM164 1147l133 246h86l-158 -246h-61z" />
<glyph unicode="&#xee;" horiz-adv-x="378" d="M-61 1147l217 246h67l217 -246h-61l-191 194l-188 -194h-61zM137 0v1024h103v-1024h-103z" />
<glyph unicode="&#xef;" horiz-adv-x="378" d="M-121 1178v215h86v-215h-86zM137 0v1024h103v-1024h-103zM412 1178v215h86v-215h-86z" />
<glyph unicode="&#xf0;" horiz-adv-x="1126" d="M117 451q0 229 111.5 355t312.5 126q215 0 360 -217l4 2q-12 328 -149 481l-166 -166l-41 43l156 158q-106 92 -261 92q-133 0 -268 -45l-16 80q154 53 293 53q193 0 321 -110l160 159l41 -41l-154 -155q186 -197 187 -652q0 -635 -461 -634q-186 0 -308 128t-122 343z M225 451q0 -180 96.5 -282.5t233.5 -102.5q360 0 344 559q-61 96 -149 156.5t-185 60.5q-98 0 -168.5 -36t-106.5 -97.5t-50.5 -123.5t-14.5 -134z" />
<glyph unicode="&#xf1;" d="M137 0v1024h103v-154h4q188 174 395 174q307 0 307 -333v-711h-102v690q0 266 -246 266q-170 0 -358 -155v-801h-103zM219 1219q66 86 113 118.5t102 32.5q51 0 143.5 -63.5t122.5 -63.5q72 0 134 105l32 -31q-70 -139 -166 -139q-39 0 -132 61t-132 61q-41 0 -73.5 -18 t-108.5 -94z" />
<glyph unicode="&#xf2;" horiz-adv-x="1126" d="M117 512q0 532 446 532q444 0 444.5 -532t-444.5 -532q-446 0 -446 532zM225 512q0 -446 338 -446t338 446q0 444 -338 444t-338 -444zM391 1393h86l133 -246h-61z" />
<glyph unicode="&#xf3;" horiz-adv-x="1126" d="M117 512q0 532 446 532q444 0 444.5 -532t-444.5 -532q-446 0 -446 532zM225 512q0 -446 338 -446t338 446q0 444 -338 444t-338 -444zM508 1147l133 246h86l-158 -246h-61z" />
<glyph unicode="&#xf4;" horiz-adv-x="1126" d="M117 512q0 532 446 532q444 0 444.5 -532t-444.5 -532q-446 0 -446 532zM225 512q0 -446 338 -446t338 446q0 444 -338 444t-338 -444zM311 1147l217 246h68l217 -246h-61l-191 194l-188 -194h-62z" />
<glyph unicode="&#xf5;" horiz-adv-x="1126" d="M117 512q0 532 446 532q444 0 444.5 -532t-444.5 -532q-446 0 -446 532zM225 512q0 -446 338 -446t338 446q0 444 -338 444t-338 -444zM246 1219q66 86 113 118.5t102 32.5q51 0 143 -63.5t123 -63.5q72 0 133 105l33 -31q-70 -139 -166 -139q-39 0 -132 61t-132 61 q-41 0 -74 -18t-108 -94z" />
<glyph unicode="&#xf6;" horiz-adv-x="1126" d="M117 512q0 532 446 532q444 0 444.5 -532t-444.5 -532q-446 0 -446 532zM225 512q0 -446 338 -446t338 446q0 444 -338 444t-338 -444zM250 1178v215h86v-215h-86zM782 1178v215h86v-215h-86z" />
<glyph unicode="&#xf7;" horiz-adv-x="1024" d="M137 500v86h748v-86h-748zM465 113v225h92v-225h-92zM465 748v225h92v-225h-92z" />
<glyph unicode="&#xf8;" horiz-adv-x="1126" d="M72 -23l137 162q-92 129 -92 373q0 532 446 532q203 0 316 -122l137 157l39 -30l-142 -164q94 -135 95 -373q0 -532 -445 -532q-209 0 -317 124l-135 -159zM225 512q0 -180 62 -283l528 617q-88 111 -252 110q-338 0 -338 -444zM311 178q86 -113 252 -112q338 0 338 446 q0 176 -63 283z" />
<glyph unicode="&#xf9;" d="M137 311v713h103v-692q0 -266 245 -266q168 0 359 157v801h102v-1024h-102v154h-4q-188 -174 -396 -174q-307 -1 -307 331zM340 1393h86l133 -246h-61z" />
<glyph unicode="&#xfa;" d="M137 311v713h103v-692q0 -266 245 -266q168 0 359 157v801h102v-1024h-102v154h-4q-188 -174 -396 -174q-307 -1 -307 331zM487 1147l134 246h86l-158 -246h-62z" />
<glyph unicode="&#xfb;" d="M137 311v713h103v-692q0 -266 245 -266q168 0 359 157v801h102v-1024h-102v154h-4q-188 -174 -396 -174q-307 -1 -307 331zM291 1147l217 246h67l218 -246h-62l-190 194l-189 -194h-61z" />
<glyph unicode="&#xfc;" d="M137 311v713h103v-692q0 -266 245 -266q168 0 359 157v801h102v-1024h-102v154h-4q-188 -174 -396 -174q-307 -1 -307 331zM233 1178v215h86v-215h-86zM766 1178v215h86v-215h-86z" />
<glyph unicode="&#xfd;" horiz-adv-x="1146" d="M113 1024h114l361 -930h4l332 930h110l-409 -1112q-63 -180 -151.5 -261t-217.5 -81q-72 0 -123 12l10 88q43 -10 92.5 -10t93.5 22.5t70.5 49t56 80t41 80t33.5 83.5zM557 1147l133 246h86l-158 -246h-61z" />
<glyph unicode="&#xfe;" d="M137 -410v1844h103v-512h4q141 123 340 122q383 0 383 -532q0 -246 -93.5 -389t-295.5 -143q-197 0 -334 120h-4v-510h-103zM240 176q137 -111 307 -110q313 0 313 446q0 444 -313 444q-166 0 -307 -108v-672z" />
<glyph unicode="&#xff;" horiz-adv-x="1146" d="M113 1024h114l361 -930h4l332 930h110l-409 -1112q-63 -180 -151.5 -261t-217.5 -81q-72 0 -123 12l10 88q43 -10 92.5 -10t93.5 22.5t70.5 49t56 80t41 80t33.5 83.5zM264 1178v215h86v-215h-86zM797 1178v215h86v-215h-86z" />
<glyph unicode="&#x152;" horiz-adv-x="2148" d="M137 706.5q0 122.5 14.5 221t53.5 191.5t101.5 155.5t163.5 100.5t237 38q362 0 452 -340h2v320h838v-99h-731v-522h639v-96h-639v-580h741v-96h-848v330h-2q-20 -96 -68.5 -167t-98.5 -104.5t-115.5 -53t-99.5 -22.5t-70 -3q-137 0 -241 40.5t-165 106.5t-99 163 t-51.5 195.5t-13.5 221zM250 707q0 -104 9 -188.5t39 -171.5t79 -144.5t133 -94t196.5 -36.5t196.5 36.5t133 95t78 147.5t38 176t9 198q0 102 -10 182t-40 161t-79 134t-132 86t-193 33q-141 0 -235.5 -49t-140.5 -141.5t-63.5 -191.5t-17.5 -232z" />
<glyph unicode="&#x153;" horiz-adv-x="1869" d="M117 512q0 532 446 532q317 0 393 -313q80 313 422 313q117 0 199 -34.5t122 -94t56.5 -119t16.5 -129t-21 -161.5h-739q4 -440 393 -440q186 0 321 40l15 -83q-158 -43 -348 -43q-358 0 -437 311q-76 -311 -393 -311q-446 0 -446 532zM225 512q0 -446 338 -446t338 446 q0 444 -338 444t-338 -444zM1012 575h641q14 61 14 107q0 121 -70.5 201t-224.5 80q-333 -1 -360 -388z" />
<glyph unicode="&#x178;" horiz-adv-x="1269" d="M96 1393h125l414 -787h4l416 787h116l-483 -901v-492h-106v492zM326 1511v215h86v-215h-86zM858 1511v215h86v-215h-86z" />
<glyph unicode="&#x2c6;" horiz-adv-x="768" d="M133 1147l217 246h68l217 -246h-62l-190 194l-188 -194h-62z" />
<glyph unicode="&#x2dc;" horiz-adv-x="913" d="M133 1219q66 86 113 118.5t102 32.5q51 0 143.5 -63.5t122.5 -63.5q72 0 134 105l32 -31q-70 -139 -166 -139q-39 0 -132 61t-132 61q-41 0 -73.5 -18t-108.5 -94z" />
<glyph unicode="&#x2000;" horiz-adv-x="894" />
<glyph unicode="&#x2001;" horiz-adv-x="1792" />
<glyph unicode="&#x2002;" horiz-adv-x="894" />
<glyph unicode="&#x2003;" horiz-adv-x="1792" />
<glyph unicode="&#x2004;" horiz-adv-x="595" />
<glyph unicode="&#x2005;" horiz-adv-x="446" />
<glyph unicode="&#x2006;" horiz-adv-x="296" />
<glyph unicode="&#x2007;" horiz-adv-x="296" />
<glyph unicode="&#x2008;" horiz-adv-x="223" />
<glyph unicode="&#x2009;" horiz-adv-x="358" />
<glyph unicode="&#x200a;" horiz-adv-x="98" />
<glyph unicode="&#x2010;" horiz-adv-x="1024" d="M137 500v86h748v-86h-748z" />
<glyph unicode="&#x2011;" horiz-adv-x="1024" d="M137 500v86h748v-86h-748z" />
<glyph unicode="&#x2012;" horiz-adv-x="1024" d="M137 500v86h748v-86h-748z" />
<glyph unicode="&#x2013;" horiz-adv-x="1417" d="M137 500v86h1143v-86h-1143z" />
<glyph unicode="&#x2014;" horiz-adv-x="1556" d="M137 500v86h1280v-86h-1280z" />
<glyph unicode="&#x2018;" horiz-adv-x="378" d="M137 891v235l58 267h41l-31 -267h35v-235h-103z" />
<glyph unicode="&#x2019;" horiz-adv-x="378" d="M137 1157v236h103v-236l-56 -266h-41l31 266h-37z" />
<glyph unicode="&#x201a;" horiz-adv-x="378" d="M137 -31v236h103v-236l-56 -266h-41l31 266h-37z" />
<glyph unicode="&#x201c;" horiz-adv-x="829" d="M137 891v235l58 267h41l-31 -267h35v-235h-103zM588 891v235q10 45 28.5 133.5t28.5 133.5h41l-31 -267h35v-235h-102z" />
<glyph unicode="&#x201d;" horiz-adv-x="829" d="M137 1157v236h103v-236l-56 -266h-41l31 266h-37zM588 1157v236h102v-236l-55 -266h-41l31 266h-37z" />
<glyph unicode="&#x201e;" horiz-adv-x="829" d="M137 -31v236h103v-236l-56 -266h-41l31 266h-37zM588 -31v236h102v-236l-55 -266h-41l31 266h-37z" />
<glyph unicode="&#x2022;" horiz-adv-x="460" d="M178 393v236h103v-236h-103z" />
<glyph unicode="&#x2026;" horiz-adv-x="1198" d="M137 0v236h103v-236h-103zM547 0v236h102v-236h-102zM956 0v236h103v-236h-103z" />
<glyph unicode="&#x202f;" horiz-adv-x="358" />
<glyph unicode="&#x2039;" horiz-adv-x="778" d="M137 479v66l502 340v-94l-393 -279l393 -279v-96z" />
<glyph unicode="&#x203a;" horiz-adv-x="778" d="M137 137v96l395 279l-395 279v94l502 -340v-66z" />
<glyph unicode="&#x205f;" horiz-adv-x="446" />
<glyph unicode="&#x20ac;" horiz-adv-x="1433" d="M123 520v66h147q-4 78 -4 121q0 16 1 48.5t1 51.5h-145v65h156q33 246 169 393.5t386 147.5q121 0 228 -36t149 -63.5t100 -74.5l-39 -84q-193 160 -422 160q-207 0 -315.5 -122t-139.5 -321h445l-13 -65h-446q-2 -35 -2 -100q0 -43 4 -121h457l-13 -66h-428 q33 -199 141.5 -321.5t309.5 -122.5q227 0 422 162l39 -84q-57 -47 -99.5 -75t-150 -63.5t-227.5 -35.5q-244 0 -380.5 147t-172.5 393h-158z" />
<glyph unicode="&#x2122;" horiz-adv-x="1607" d="M92 1331v62h520v-62h-227v-643h-66v643h-227zM815 688v705h88l258 -596h4l262 596h89v-705h-68v576h-4l-258 -576h-53l-250 576h-4v-576h-64z" />
<glyph unicode="&#xe000;" horiz-adv-x="1025" d="M0 1025h1025v-1025h-1025v1025z" />
<glyph unicode="&#xfb01;" horiz-adv-x="1064" d="M51 946v70l168 8v72q0 178 88 258t260 80q174 0 328 -70l-14 -76q-154 61 -303 62q-141 0 -198.5 -63.5t-57.5 -190.5v-72h604v-1024h-103v946h-501v-946h-103v946h-168z" />
<glyph unicode="&#xfb02;" horiz-adv-x="1064" d="M51 946v70l168 8v72q0 178 88 258t260 80q143 0 283 -60h76v-1374h-103v1290q-139 59 -245 60q-141 0 -198.5 -63.5t-57.5 -190.5v-72h307v-78h-307v-946h-103v946h-168z" />
<glyph unicode="&#xfb03;" horiz-adv-x="1669" d="M51 946v70l168 8v86q0 180 64.5 252t208.5 72q49 0 147 -13l-10 -82q-86 10 -117 11q-111 0 -150.5 -60.5t-39.5 -193.5v-72h501v72q0 178 88 258t260 80q174 0 328 -70l-14 -76q-154 61 -303 62q-141 0 -198.5 -63.5t-57.5 -190.5v-72h604v-1024h-103v946h-501v-946 h-103v946h-501v-946h-103v946h-168z" />
<glyph unicode="&#xfb04;" horiz-adv-x="1669" d="M51 946v70l168 8v86q0 180 64.5 252t208.5 72q49 0 147 -13l-10 -82q-86 10 -117 11q-111 0 -150.5 -60.5t-39.5 -193.5v-72h501v72q0 178 88 258t260 80q143 0 283 -60h76v-1374h-103v1290q-139 59 -245 60q-141 0 -198.5 -63.5t-57.5 -190.5v-72h307v-78h-307v-946 h-103v946h-501v-946h-103v946h-168z" />
</font>
</defs>
</svg>
